<svg width="145" height="46" viewBox="0 0 145 46" fill="none" xmlns="http://www.w3.org/2000/svg">
<path d="M64.2885 29.6544L80.6635 13.1125C80.9393 12.8339 81.3847 12.8339 81.6604 13.1125L94.3702 25.9518L81.6604 38.7911C81.3847 39.0696 80.9393 39.0696 80.6635 38.7911L72.7843 30.8315L76.5528 27.0246L81.1627 31.6815L86.836 25.9518L81.1627 20.2221L68.0584 33.4599C63.9604 37.5997 57.2917 37.5997 53.1937 33.4599C51.2083 31.4543 50.1152 28.7873 50.1152 25.9518C50.1152 23.1162 51.2083 20.4492 53.1937 18.4436C55.179 16.438 57.8191 15.3338 60.626 15.3338C63.433 15.3338 66.0731 16.438 68.0584 18.4436L70.6533 21.0649L66.8862 24.8718L64.2913 22.2505C63.211 21.1592 61.7361 20.6078 60.1919 20.7349C59.1229 20.822 58.1019 21.2492 57.2846 21.9506C56.1024 22.9648 55.4435 24.4076 55.4435 25.9532C55.4435 27.3517 55.9822 28.6659 56.9622 29.6559C58.9829 31.6972 62.2706 31.6972 64.2913 29.6559L64.2885 29.6544Z" fill="#007CBC"/>
<path d="M8.59193 24.6733L12.6715 12.9011H12.7493L16.8289 24.6733H8.59193ZM42.1183 34.7842C41.168 34.7842 40.8131 34.7142 40.8131 33.3543V17.5794H29.7988V15.1853C29.7988 13.0582 30.199 11.5098 31.0008 10.537C31.8012 9.56558 32.965 8.97704 34.8527 8.97704C35.5202 8.97704 36.4337 9.16417 37.0743 9.80985C37.6031 10.3441 37.7134 10.9384 37.7134 12.074V12.9125H40.8131V8.62849C40.3408 8.32279 39.5871 7.84281 38.3992 7.46998C37.5819 7.21285 36.2767 7 35.1935 7C32.0967 7 29.9501 7.7671 28.587 9.09846C27.2238 10.4298 26.5422 12.4783 26.5422 15.2438V17.5794H24.0435V19.8693H26.5422V33.0029C26.5422 33.7729 26.4687 34.2685 26.3004 34.4714C26.1505 34.6514 25.862 34.76 25.5354 34.76C24.6983 34.76 24.3956 34.5571 24.1793 34.4214C23.912 34.2543 23.6207 33.92 23.3563 33.3257C23.0919 32.7315 22.8303 32.063 22.5715 31.3201L14.3303 7.59854H11.8655L3.0233 32.9029C2.47605 34.4128 2.00233 34.7842 0.763602 34.7842H0V36.5841H8.35012V34.7842L7.07887 34.7799C6.1682 34.7799 5.51207 34.7071 5.51207 33.86C5.51207 33.6029 5.65772 33.0129 5.8769 32.4244C5.90236 32.3501 6.95443 29.3474 7.7548 27.0646H17.7014C18.3858 29.0345 19.1112 31.1373 19.4025 31.9858C19.4054 31.993 19.4082 32.0001 19.411 32.0087C19.7843 33.0958 19.9399 33.6186 19.9399 33.9343C19.9399 34.7071 19.3205 34.7814 18.8468 34.7814H17.2235L17.239 34.7885L17.2235 34.7857V36.5856H32.2197V34.7857L31.1069 34.7828C29.9558 34.7828 29.7988 34.6585 29.7988 33.4157V19.8722H36.042C37.5918 19.8722 37.7134 20.1836 37.7134 21.7906V33.0986C37.7134 34.6228 37.3147 34.7828 36.124 34.7828L35.2911 34.7871V36.587H42.9823V34.7871H42.1183V34.7842Z" fill="#141414"/>
<rect x="102.37" y="11" width="0.25" height="24" fill="black"/>
<path d="M116.381 18.69C115.877 18.69 115.42 18.7833 115.009 18.97C114.608 19.1567 114.258 19.432 113.959 19.796C113.67 20.16 113.446 20.6127 113.287 21.154C113.128 21.6953 113.049 22.3207 113.049 23.03C113.049 23.7393 113.124 24.3647 113.273 24.906C113.432 25.438 113.66 25.886 113.959 26.25C114.258 26.614 114.622 26.8893 115.051 27.076C115.49 27.2627 115.989 27.356 116.549 27.356C117.165 27.356 117.697 27.23 118.145 26.978C118.593 26.726 118.962 26.3853 119.251 25.956C119.55 25.5173 119.778 25.032 119.937 24.5L120.805 24.85C120.609 25.5313 120.315 26.1287 119.923 26.642C119.531 27.146 119.046 27.538 118.467 27.818C117.888 28.098 117.226 28.238 116.479 28.238C115.76 28.238 115.102 28.1213 114.505 27.888C113.917 27.6547 113.408 27.314 112.979 26.866C112.55 26.4087 112.218 25.858 111.985 25.214C111.761 24.57 111.649 23.842 111.649 23.03C111.649 22.2087 111.766 21.476 111.999 20.832C112.242 20.188 112.578 19.642 113.007 19.194C113.436 18.746 113.936 18.4053 114.505 18.172C115.084 17.9293 115.704 17.808 116.367 17.808C117.02 17.808 117.585 17.92 118.061 18.144C118.537 18.3587 118.929 18.676 119.237 19.096C119.545 19.516 119.76 20.034 119.881 20.65L119.475 20.286L119.671 17.99H120.581V21.322H119.601C119.442 20.7807 119.218 20.314 118.929 19.922C118.64 19.53 118.28 19.2267 117.851 19.012C117.431 18.7973 116.941 18.69 116.381 18.69ZM126.582 27.384C127.058 27.384 127.45 27.328 127.758 27.216C128.075 27.0947 128.308 26.9033 128.458 26.642C128.616 26.3807 128.696 26.0353 128.696 25.606C128.696 25.2233 128.616 24.9107 128.458 24.668C128.299 24.416 128.084 24.2153 127.814 24.066C127.543 23.9073 127.24 23.7767 126.904 23.674C126.568 23.5713 126.222 23.478 125.868 23.394C125.457 23.282 125.06 23.1653 124.678 23.044C124.304 22.9133 123.968 22.7453 123.67 22.54C123.371 22.3253 123.133 22.05 122.956 21.714C122.788 21.3687 122.704 20.9347 122.704 20.412C122.704 19.88 122.825 19.4227 123.068 19.04C123.32 18.648 123.674 18.3447 124.132 18.13C124.589 17.9153 125.126 17.808 125.742 17.808C126.236 17.808 126.675 17.8827 127.058 18.032C127.45 18.1813 127.786 18.4333 128.066 18.788C128.346 19.1333 128.556 19.614 128.696 20.23L128.36 19.936L128.528 17.99H129.396V20.846H128.458C128.318 20.37 128.122 19.9687 127.87 19.642C127.627 19.3153 127.333 19.068 126.988 18.9C126.642 18.732 126.246 18.648 125.798 18.648C125.35 18.648 124.981 18.7133 124.692 18.844C124.412 18.9747 124.206 19.166 124.076 19.418C123.945 19.6607 123.88 19.9547 123.88 20.3C123.88 20.6453 123.95 20.93 124.09 21.154C124.239 21.3687 124.44 21.546 124.692 21.686C124.944 21.8167 125.238 21.9333 125.574 22.036C125.91 22.1293 126.269 22.2273 126.652 22.33C127.053 22.4327 127.445 22.5493 127.828 22.68C128.22 22.8107 128.574 22.9833 128.892 23.198C129.218 23.4127 129.475 23.6927 129.662 24.038C129.848 24.374 129.942 24.7987 129.942 25.312C129.942 25.9747 129.792 26.5253 129.494 26.964C129.204 27.3933 128.808 27.7153 128.304 27.93C127.809 28.1353 127.244 28.238 126.61 28.238C126.022 28.238 125.48 28.1493 124.986 27.972C124.5 27.7853 124.085 27.4867 123.74 27.076C123.404 26.656 123.17 26.0913 123.04 25.382L123.474 25.774L123.306 28.07H122.396V24.78H123.348C123.488 25.3493 123.707 25.83 124.006 26.222C124.304 26.614 124.668 26.908 125.098 27.104C125.536 27.2907 126.031 27.384 126.582 27.384ZM131.418 28V27.23H131.572C131.805 27.23 132.011 27.216 132.188 27.188C132.365 27.16 132.505 27.1087 132.608 27.034C132.711 26.9593 132.762 26.8567 132.762 26.726V19.32C132.762 19.18 132.711 19.0773 132.608 19.012C132.505 18.9373 132.365 18.886 132.188 18.858C132.011 18.83 131.805 18.816 131.572 18.816H131.418V18.06H134.848L137.634 26.712L137.41 26.74L140.266 18.06H143.612V18.816H143.458C143.113 18.816 142.828 18.8487 142.604 18.914C142.38 18.9793 142.268 19.1147 142.268 19.32V26.726C142.268 26.9313 142.38 27.0667 142.604 27.132C142.828 27.1973 143.113 27.23 143.458 27.23H143.612V28H139.776V27.23H139.902C140.061 27.23 140.219 27.2253 140.378 27.216C140.546 27.2067 140.686 27.1927 140.798 27.174C140.919 27.1553 140.98 27.132 140.98 27.104V18.34L141.12 18.284L137.774 28.028H136.906L133.56 18.284L133.7 18.312V27.104C133.7 27.132 133.761 27.1553 133.882 27.174C134.013 27.1927 134.162 27.2067 134.33 27.216C134.507 27.2253 134.657 27.23 134.778 27.23H134.834V28H131.418Z" fill="#344054"/>
</svg>
