<svg viewBox="51 6 46 26" fill="none" xmlns="http://www.w3.org/2000/svg">
  <path d="M65.4361 22.6544L82.1036 6.11245C82.3842 5.83389 82.8376 5.83389 83.1183 6.11245L96.055 18.9518L83.1183 31.7911C82.8376 32.0696 82.3842 32.0696 82.1036 31.7911L74.0836 23.8315L77.9194 20.0246L82.6116 24.6815L88.3862 18.9518L82.6116 13.2221L69.2734 26.4599C65.1022 30.5997 58.3143 30.5997 54.1432 26.4599C52.1224 24.4543 51.0098 21.7873 51.0098 18.9518C51.0098 16.1162 52.1224 13.4492 54.1432 11.4436C56.164 9.43799 58.8512 8.33376 61.7083 8.33376C64.5653 8.33376 67.2526 9.43799 69.2734 11.4436L71.9146 14.0649L68.0802 17.8718L65.439 15.2505C64.3394 14.1592 62.8382 13.6078 61.2664 13.7349C60.1783 13.822 59.1391 14.2492 58.3072 14.9506C57.1039 15.9648 56.4331 17.4076 56.4331 18.9532C56.4331 20.3517 56.9815 21.6659 57.979 22.6559C60.0358 24.6972 63.3822 24.6972 65.439 22.6559L65.4361 22.6544Z" fill="#FFFFFF"/>
</svg>
