<svg viewBox="50 6 45 26" fill="none" xmlns="http://www.w3.org/2000/svg">
  <path d="M64.2885 22.6544L80.6635 6.11245C80.9393 5.83389 81.3847 5.83389 81.6604 6.11245L94.3702 18.9518L81.6604 31.7911C81.3847 32.0696 80.9393 32.0696 80.6635 31.7911L72.7843 23.8315L76.5528 20.0246L81.1627 24.6815L86.836 18.9518L81.1627 13.2221L68.0584 26.4599C63.9604 30.5997 57.2917 30.5997 53.1937 26.4599C51.2083 24.4543 50.1152 21.7873 50.1152 18.9518C50.1152 16.1162 51.2083 13.4492 53.1937 11.4436C55.179 9.43799 57.8191 8.33376 60.6261 8.33376C63.433 8.33376 66.0731 9.43799 68.0584 11.4436L70.6533 14.0649L66.8862 17.8718L64.2913 15.2505C63.211 14.1592 61.7361 13.6078 60.1919 13.7349C59.1229 13.822 58.1019 14.2492 57.2846 14.9506C56.1024 15.9648 55.4435 17.4076 55.4435 18.9532C55.4435 20.3517 55.9822 21.6659 56.9622 22.6559C58.9829 24.6972 62.2706 24.6972 64.2913 22.6559L64.2885 22.6544Z" fill="#007CBC"/>
</svg>
