<svg width="97" height="32" viewBox="0 0 97 32" fill="none" xmlns="http://www.w3.org/2000/svg">
<path d="M65.436 22.6544L82.1034 6.11245C82.3841 5.83389 82.8375 5.83389 83.1182 6.11245L96.0548 18.9518L83.1182 31.7911C82.8375 32.0696 82.3841 32.0696 82.1034 31.7911L74.0835 23.8315L77.9193 20.0246L82.6115 24.6815L88.3861 18.9518L82.6115 13.2221L69.2733 26.4599C65.1021 30.5997 58.3142 30.5997 54.1431 26.4599C52.1222 24.4543 51.0096 21.7873 51.0096 18.9518C51.0096 16.1162 52.1222 13.4492 54.1431 11.4436C56.1639 9.43799 58.8511 8.33376 61.7082 8.33376C64.5652 8.33376 67.2525 9.43799 69.2733 11.4436L71.9144 14.0649L68.0801 17.8718L65.4389 15.2505C64.3393 14.1592 62.838 13.6078 61.2663 13.7349C60.1782 13.822 59.139 14.2492 58.307 14.9506C57.1038 15.9648 56.433 17.4076 56.433 18.9532C56.433 20.3517 56.9814 21.6659 57.9789 22.6559C60.0357 24.6972 63.3821 24.6972 65.4389 22.6559L65.436 22.6544Z" fill="white"/>
<path d="M8.74536 17.6733L12.8978 5.90111H12.977L17.1294 17.6733H8.74536ZM42.8704 27.7842C41.9032 27.7842 41.5419 27.7142 41.5419 26.3543V10.5794H30.331V8.18528C30.331 6.05825 30.7383 4.50976 31.5544 3.53696C32.369 2.56558 33.5536 1.97704 35.4751 1.97704C36.1545 1.97704 37.0843 2.16417 37.7363 2.80985C38.2746 3.34411 38.3869 3.93836 38.3869 5.07402V5.91254H41.5419V1.62849C41.0611 1.32279 40.294 0.842813 39.0849 0.469976C38.253 0.212847 36.9245 0 35.822 0C32.6699 0 30.485 0.767102 29.0975 2.09846C27.7099 3.42982 27.0162 5.47828 27.0162 8.24385V10.5794H24.4729V12.8693H27.0162V26.0029C27.0162 26.7729 26.9413 27.2685 26.7701 27.4714C26.6175 27.6514 26.3239 27.76 25.9914 27.76C25.1393 27.76 24.8313 27.5571 24.6111 27.4214C24.339 27.2543 24.0425 26.92 23.7734 26.3257C23.5042 25.7315 23.2379 25.063 22.9746 24.3201L14.5861 0.59854H12.0774L3.07728 25.9029C2.52026 27.4128 2.03809 27.7842 0.777237 27.7842H0V29.5841H8.49923V27.7842L7.20528 27.7799C6.27835 27.7799 5.6105 27.7071 5.6105 26.86C5.6105 26.6029 5.75875 26.0129 5.98185 25.4244C6.00776 25.3501 7.07862 22.3474 7.89327 20.0646H18.0175C18.7141 22.0345 19.4525 24.1373 19.749 24.9858C19.7519 24.993 19.7548 25.0001 19.7577 25.0087C20.1376 26.0958 20.296 26.6186 20.296 26.9343C20.296 27.7071 19.6655 27.7814 19.1834 27.7814H17.531L17.5468 27.7885L17.531 27.7857V29.5856H32.7951V27.7857L31.6623 27.7828C30.4907 27.7828 30.331 27.6585 30.331 26.4157V12.8722H36.6856C38.2631 12.8722 38.3869 13.1836 38.3869 14.7906V26.0986C38.3869 27.6228 37.981 27.7828 36.7691 27.7828L35.9213 27.7871V29.587H43.7498V27.7871H42.8704V27.7842Z" fill="white"/>
</svg>
