<svg width="95" height="32" viewBox="0 0 95 32" fill="none" xmlns="http://www.w3.org/2000/svg">
<path d="M64.2885 22.6544L80.6635 6.11245C80.9393 5.83389 81.3847 5.83389 81.6604 6.11245L94.3702 18.9518L81.6604 31.7911C81.3847 32.0696 80.9393 32.0696 80.6635 31.7911L72.7843 23.8315L76.5528 20.0246L81.1627 24.6815L86.836 18.9518L81.1627 13.2221L68.0584 26.4599C63.9604 30.5997 57.2917 30.5997 53.1937 26.4599C51.2083 24.4543 50.1152 21.7873 50.1152 18.9518C50.1152 16.1162 51.2083 13.4492 53.1937 11.4436C55.179 9.43799 57.8191 8.33376 60.6261 8.33376C63.433 8.33376 66.0731 9.43799 68.0584 11.4436L70.6533 14.0649L66.8862 17.8718L64.2913 15.2505C63.211 14.1592 61.7361 13.6078 60.1919 13.7349C59.1229 13.822 58.1019 14.2492 57.2846 14.9506C56.1024 15.9648 55.4435 17.4076 55.4435 18.9532C55.4435 20.3517 55.9822 21.6659 56.9622 22.6559C58.9829 24.6972 62.2706 24.6972 64.2913 22.6559L64.2885 22.6544Z" fill="#007CBC"/>
<path d="M8.59193 17.6733L12.6715 5.90111H12.7493L16.8289 17.6733H8.59193ZM42.1183 27.7842C41.168 27.7842 40.8131 27.7142 40.8131 26.3543V10.5794H29.7988V8.18528C29.7988 6.05825 30.199 4.50976 31.0008 3.53696C31.8012 2.56558 32.965 1.97704 34.8527 1.97704C35.5202 1.97704 36.4337 2.16417 37.0743 2.80985C37.6031 3.34411 37.7134 3.93836 37.7134 5.07402V5.91254H40.8131V1.62849C40.3408 1.32279 39.5871 0.842813 38.3992 0.469976C37.5819 0.212847 36.2767 0 35.1935 0C32.0967 0 29.9501 0.767102 28.587 2.09846C27.2238 3.42982 26.5422 5.47828 26.5422 8.24385V10.5794H24.0435V12.8693H26.5422V26.0029C26.5422 26.7729 26.4687 27.2685 26.3004 27.4714C26.1505 27.6514 25.862 27.76 25.5354 27.76C24.6983 27.76 24.3956 27.5571 24.1793 27.4214C23.912 27.2543 23.6207 26.92 23.3563 26.3257C23.0919 25.7315 22.8303 25.063 22.5715 24.3201L14.3303 0.59854H11.8655L3.0233 25.9029C2.47605 27.4128 2.00233 27.7842 0.763602 27.7842H0V29.5841H8.35012V27.7842L7.07887 27.7799C6.1682 27.7799 5.51207 27.7071 5.51207 26.86C5.51207 26.6029 5.65772 26.0129 5.8769 25.4244C5.90236 25.3501 6.95443 22.3474 7.7548 20.0646H17.7014C18.3858 22.0345 19.1112 24.1373 19.4025 24.9858C19.4054 24.993 19.4082 25.0001 19.411 25.0087C19.7843 26.0958 19.9399 26.6186 19.9399 26.9343C19.9399 27.7071 19.3205 27.7814 18.8468 27.7814H17.2235L17.239 27.7885L17.2235 27.7857V29.5856H32.2197V27.7857L31.1069 27.7828C29.9558 27.7828 29.7988 27.6585 29.7988 26.4157V12.8722H36.042C37.5918 12.8722 37.7134 13.1836 37.7134 14.7906V26.0986C37.7134 27.6228 37.3147 27.7828 36.124 27.7828L35.2911 27.7871V29.587H42.9823V27.7871H42.1183V27.7842Z" fill="#141414"/>
</svg>
